<?xml version="1.0" encoding="UTF-8" standalone="no"?>
<!-- Created with Inkscape (http://www.inkscape.org/) -->

<svg
   width="174mm"
   height="43mm"
   viewBox="0 0 174 43"
   version="1.1"
   id="svg135"
   xml:space="preserve"
   inkscape:export-filename="ddoslogo.svg"
   inkscape:export-xdpi="96"
   inkscape:export-ydpi="96"
   sodipodi:docname="ddoslogo.svg"
   inkscape:version="1.2.1 (9c6d41e410, 2022-07-14)"
   xmlns:inkscape="http://www.inkscape.org/namespaces/inkscape"
   xmlns:sodipodi="http://sodipodi.sourceforge.net/DTD/sodipodi-0.dtd"
   xmlns="http://www.w3.org/2000/svg"
   xmlns:svg="http://www.w3.org/2000/svg"><sodipodi:namedview
     id="namedview137"
     pagecolor="#ffffff"
     bordercolor="#000000"
     borderopacity="0.25"
     inkscape:showpageshadow="2"
     inkscape:pageopacity="0.0"
     inkscape:pagecheckerboard="0"
     inkscape:deskcolor="#d1d1d1"
     inkscape:document-units="mm"
     showgrid="false"
     inkscape:zoom="0.7251544"
     inkscape:cx="397.1568"
     inkscape:cy="340.61712"
     inkscape:window-width="1920"
     inkscape:window-height="1017"
     inkscape:window-x="-8"
     inkscape:window-y="-8"
     inkscape:window-maximized="1"
     inkscape:current-layer="layer1" /><defs
     id="defs132"><filter
       inkscape:collect="always"
       style="color-interpolation-filters:sRGB"
       id="filter2119"
       x="-0.0074303421"
       y="-0.0058701969"
       width="1.0148607"
       height="1.0117404"><feGaussianBlur
         inkscape:collect="always"
         stdDeviation="0.050783817"
         id="feGaussianBlur2121" /></filter></defs><g
     inkscape:label="Слој 1"
     inkscape:groupmode="layer"
     id="layer1"><path
       style="fill:#c6ff81;fill-opacity:1;stroke:none;stroke-width:0.564999;stroke-linejoin:bevel"
       d="m 55.129604,10.051826 h -2.262097 l 0.04435,-5.7661247 h 23.064518 l 0.04436,28.1209637 -23.241937,-0.08871 0.133064,-5.766128 18.495968,-0.04436 -0.177419,-16.500001 -11.399192,-0.04435 0.08871,17.387097 -4.834678,-0.443548 z"
       id="path2228-9" /><path
       style="opacity:1;fill:#4a4a86;fill-opacity:1;stroke:none;stroke-width:0.564999;stroke-linejoin:bevel;filter:url(#filter2119)"
       d="m 4.6520986,6.7102851 -0.06273,3.3245399 12.8904424,7.339084 -12.8590784,6.649085 -0.06273,3.449995 16.3404394,-8.687718 0.06273,-2.195452 z"
       id="path527" /><path
       style="opacity:1;fill:#c6ff81;fill-opacity:1;stroke:none;stroke-width:0.564999;stroke-linejoin:bevel"
       d="m 27.269886,9.9619253 h -2.262097 l 0.04435,-5.766125 h 23.064522 l 0.04436,28.1209637 -23.241937,-0.08871 0.133064,-5.766128 18.495968,-0.04436 -0.177419,-16.5000007 -11.399192,-0.04435 0.08871,17.3870967 -4.834678,-0.443548 z"
       id="path2228" /><path
       style="opacity:1;fill:#4a4a86;fill-opacity:1;stroke:none;stroke-width:0.564999;stroke-linejoin:bevel"
       d="m 80.58339,32.208896 -0.06273,-27.9763347 23.27175,-0.06273 -0.12546,28.1645137 -4.579074,-5.833631 -0.0627,-16.5599827 -13.862671,-0.06273 -0.06273,16.8422557 15.211295,-0.313636 3.41864,6.053176 z"
       id="path2375"
       sodipodi:nodetypes="ccccccccccc" /><path
       style="opacity:1;fill:#c6ff81;fill-opacity:1;stroke:none;stroke-width:0.564999;stroke-linejoin:bevel"
       d="m 108.30612,4.2401553 h 23.28629 l -0.0443,5.72177 -18.58468,-0.08871 0.0887,5.4999997 18.36291,-0.04435 0.0887,16.810485 -23.10888,-0.221774 -0.0444,-5.41129 18.40726,-0.04435 -0.0444,-5.41129 -18.40726,-0.08871 z"
       id="path2860" /><rect
       style="opacity:1;fill:#4a4a86;fill-opacity:1;stroke:none;stroke-width:0.564999;stroke-linejoin:bevel"
       id="rect3474"
       width="13.862715"
       height="5.5513582"
       x="136.09712"
       y="32.177513" /></g></svg>
